<?xml version="1.0" standalone="no"?>
<!DOCTYPE svg PUBLIC "-//W3C//DTD SVG 20010904//EN"
 "http://www.w3.org/TR/2001/REC-SVG-20010904/DTD/svg10.dtd">
<svg version="1.0" xmlns="http://www.w3.org/2000/svg"
 width="120.000000pt" height="120.000000pt" viewBox="0 0 120.000000 120.000000"
 preserveAspectRatio="xMidYMid meet">

<g transform="translate(0.000000,120.000000) scale(0.100000,-0.100000)"
fill="#000000" stroke="none">
<path d="M298 1003 c-15 -2 -37 -16 -48 -31 -11 -15 -28 -35 -37 -45 -14 -15
-18 -35 -18 -97 1 -43 6 -84 12 -92 9 -10 9 -26 1 -58 -17 -77 -3 -175 36
-256 43 -86 103 -144 194 -187 61 -29 76 -32 162 -32 86 0 101 3 162 32 91 43
151 101 194 187 39 81 53 179 36 256 -8 32 -8 48 1 58 6 8 11 49 12 92 0 61
-4 82 -17 97 -10 10 -28 31 -41 47 -21 26 -29 29 -99 31 -46 2 -86 -2 -100 -9
-18 -10 -39 -10 -86 -2 -43 7 -81 7 -124 -1 -40 -6 -67 -7 -75 -1 -13 10 -122
18 -165 11z m442 -66 c77 -29 169 -121 200 -202 31 -82 31 -188 0 -270 -32
-83 -122 -173 -205 -205 -82 -31 -188 -31 -270 0 -83 32 -173 122 -205 205
-50 131 -23 277 71 380 106 115 256 149 409 92z"/>
<path d="M391 864 c-31 -22 -13 -37 27 -23 31 11 61 9 110 -6 28 -9 31 19 3
35 -30 16 -113 12 -140 -6z"/>
<path d="M673 870 c-13 -5 -23 -17 -23 -26 0 -12 5 -15 23 -9 48 15 78 17 109
6 40 -14 58 1 27 23 -25 17 -99 21 -136 6z"/>
<path d="M454 772 c-37 -24 -46 -115 -16 -153 25 -30 48 -20 61 28 17 60 -14
145 -45 125z"/>
<path d="M716 757 c-23 -37 -28 -64 -16 -107 14 -50 36 -62 62 -31 31 39 19
141 -18 155 -8 3 -20 -5 -28 -17z"/>
<path d="M567 584 c-4 -4 -7 -20 -7 -35 0 -22 6 -30 25 -35 40 -10 57 2 53 38
-3 29 -7 33 -33 36 -17 2 -34 0 -38 -4z"/>
<path d="M353 495 c-10 -28 5 -96 31 -135 84 -128 348 -127 434 2 20 30 26 53
27 92 0 46 -2 51 -23 54 -13 2 -41 -8 -64 -23 -108 -72 -210 -72 -315 -1 -42
29 -81 34 -90 11z m133 -96 c66 -30 162 -30 228 0 75 33 99 26 54 -17 -39 -36
-109 -62 -168 -62 -59 0 -129 26 -167 62 -46 43 -22 50 53 17z"/>
</g>
</svg>
